<svg width="24" height="24" viewBox="0 0 24 24" fill="none" xmlns="http://www.w3.org/2000/svg">
<path d="M19.9 23.5C19.743 23.5 19.588 23.45 19.458 23.356L12 17.928L4.542 23.358C4.314 23.522 4.012 23.548 3.76 23.418C3.51 23.291 3.35 23.033 3.35 22.751V5.6C3.35 4.36 4.36 3.35 5.6 3.35H18.398C19.638 3.35 20.648 4.36 20.648 5.6V22.75C20.648 23.032 20.49 23.29 20.238 23.418C20.132 23.473 20.015 23.5 19.898 23.5H19.9ZM12 16.25C12.155 16.25 12.31 16.298 12.44 16.394L19.15 21.277V5.6C19.15 5.188 18.813 4.85 18.4 4.85H5.6C5.187 4.85 4.85 5.188 4.85 5.6V21.277L11.56 16.394C11.69 16.298 11.845 16.25 12 16.25Z" fill="#D9D9D9"/>
</svg>
