<svg width="18" height="21" viewBox="0 0 18 21" fill="none" xmlns="http://www.w3.org/2000/svg">
<path d="M9 10.816C10.355 10.816 11.872 10.666 12.84 9.56C13.654 8.63 13.918 7.192 13.646 5.168C13.266 2.343 11.529 0.655998 9 0.655998C6.471 0.655998 4.734 2.343 4.354 5.17C4.082 7.192 4.346 8.63 5.16 9.56C6.128 10.667 7.645 10.816 9 10.816ZM5.84 5.368C6.002 4.168 6.627 2.156 9 2.156C11.373 2.156 11.998 4.169 12.16 5.368C12.367 6.918 12.217 7.995 11.71 8.573C11.255 9.093 10.444 9.316 9 9.316C7.556 9.316 6.745 9.093 6.29 8.573C5.783 7.995 5.633 6.917 5.84 5.368ZM17.28 18.236C16.403 14.71 12.998 12.246 9 12.246C5.002 12.246 1.597 14.71 0.720001 18.236C0.548001 18.928 0.692 19.636 1.115 20.176C1.523 20.696 2.155 20.996 2.848 20.996H15.152C15.845 20.996 16.477 20.696 16.885 20.176C17.309 19.636 17.452 18.929 17.279 18.236H17.28ZM15.704 19.252C15.578 19.412 15.388 19.498 15.152 19.498H2.848C2.613 19.498 2.422 19.413 2.296 19.252C2.159 19.078 2.116 18.84 2.176 18.598C2.886 15.743 5.693 13.748 9 13.748C12.307 13.748 15.114 15.742 15.824 18.598C15.884 18.84 15.841 19.078 15.704 19.252Z" fill="#D9D9D9"/>
</svg>
